<?xml version="1.0" encoding="iso-8859-1"?>
<!-- Uploaded to: SVG Repo, www.svgrepo.com, Generator: SVG Repo Mixer Tools -->
<svg fill="#00fa9a" height="800px" width="800px" version="1.1" id="Layer_1" xmlns="http://www.w3.org/2000/svg" xmlns:xlink="http://www.w3.org/1999/xlink" 
	 viewBox="0 0 512.001 512.001" xml:space="preserve">
<g>
	<g>
		<path d="M337.563,310.122h-54.121v-215.8h13.528c20.218,0,36.666-16.448,36.666-36.666V8.62c0-4.761-3.859-8.62-8.62-8.62H186.985
			c-4.761,0-8.62,3.859-8.62,8.62v49.037c0,20.218,16.448,36.666,36.666,36.666h13.528v215.8h-54.12c-4.76,0-8.62,3.859-8.62,8.62
			v100.686c0,11.447,4.985,22.286,13.676,29.734l70.891,60.762c1.614,1.384,3.612,2.076,5.61,2.076c1.998,0,3.995-0.692,5.609-2.075
			l70.9-60.762c8.692-7.45,13.678-18.289,13.678-29.738V318.743C346.183,313.982,342.324,310.122,337.563,310.122z M215.031,77.083
			c-10.712-0.001-19.426-8.715-19.426-19.426V17.24h120.791v40.417c0,10.712-8.714,19.426-19.426,19.426H215.031z M245.798,285.026
			V94.322h20.404v190.704H245.798z M266.203,302.266v61.229c0,5.227-4.254,9.481-9.481,9.481h-1.442
			c-5.227,0-9.481-4.254-9.481-9.481v-61.229H266.203z M183.059,327.362h45.5v11.444h-45.5V327.362z M328.943,419.426
			c0,6.409-2.791,12.477-7.657,16.647l-65.291,55.954l-65.281-55.955c-4.865-4.17-7.656-10.236-7.656-16.645v-63.382h45.5v7.45
			c0,14.733,11.988,26.721,26.721,26.721h1.442c14.733,0,26.721-11.988,26.721-26.721v-7.45h45.501V419.426z M328.943,338.806
			h-45.501v-11.444h45.501V338.806z"/>
	</g>
</g>
<g>
	<g>
		<path d="M289.164,38.542h-66.327c-4.76,0-8.62,3.859-8.62,8.62c0,4.761,3.859,8.62,8.62,8.62h66.327c4.76,0,8.62-3.859,8.62-8.62
			C297.784,42.401,293.924,38.542,289.164,38.542z"/>
	</g>
</g>
</svg>