<?xml version="1.0" ?><!-- Uploaded to: SVG Repo, www.svgrepo.com, Generator: SVG Repo Mixer Tools -->
<svg fill="#000000" width="800px" height="800px" viewBox="0 0 512 512" id="fill" xmlns="http://www.w3.org/2000/svg"><title/><path d="M398.592,14H115.409A100.522,100.522,0,0,0,15,114.409V397.592A100.522,100.522,0,0,0,115.409,498H398.592A100.522,100.522,0,0,0,499,397.592V114.409A100.522,100.522,0,0,0,398.592,14ZM487,397.592A88.509,88.509,0,0,1,398.592,486H115.409A88.509,88.509,0,0,1,27,397.592V114.409A88.509,88.509,0,0,1,115.409,26H398.592A88.509,88.509,0,0,1,487,114.409Z"/><path d="M290,267.172a34,34,0,1,0-34,34A34.038,34.038,0,0,0,290,267.172Zm-34,22a22,22,0,1,1,22-22A22.025,22.025,0,0,1,256,289.172Z"/><path d="M423.03,261.167l-119.015,0a6,6,0,0,0-6,6,42.115,42.115,0,0,1-21.008,36.388,6,6,0,0,0-2.2,8.2l59.505,103.072a6,6,0,0,0,8.192,2.2A173.231,173.231,0,0,0,429.03,267.161,6,6,0,0,0,423.03,261.167Zm-27.6,86.505a161.068,161.068,0,0,1-53.777,55.866l-53.62-92.877a54.149,54.149,0,0,0,21.646-37.492l107.244,0A161.073,161.073,0,0,1,395.43,347.672Z"/><path d="M234.994,303.559a42.113,42.113,0,0,1-21.009-36.388,6,6,0,0,0-6-6l-119.016,0a6,6,0,0,0-6,5.994,173.229,173.229,0,0,0,86.525,149.866,6,6,0,0,0,8.192-2.2l59.506-103.072a6,6,0,0,0-2.2-8.2Zm-64.647,99.979a161.3,161.3,0,0,1-75.27-130.371l107.244,0a54.149,54.149,0,0,0,21.646,37.492Z"/><path d="M226.793,228.592a6,6,0,0,0,8.2,2.195,42.107,42.107,0,0,1,42.016,0,6,6,0,0,0,8.2-2.195l59.51-103.07a6,6,0,0,0-2.192-8.193,173.225,173.225,0,0,0-173.049,0,6,6,0,0,0-2.191,8.193ZM256,106.172a161.066,161.066,0,0,1,75.27,18.64l-53.624,92.875a54.146,54.146,0,0,0-43.292,0L180.73,124.812A161.063,161.063,0,0,1,256,106.172Z"/></svg>