<?xml version="1.0" encoding="iso-8859-1"?>
<!-- Uploaded to: SVG Repo, www.svgrepo.com, Generator: SVG Repo Mixer Tools -->
<!DOCTYPE svg PUBLIC "-//W3C//DTD SVG 1.1//EN" "http://www.w3.org/Graphics/SVG/1.1/DTD/svg11.dtd">
<svg fill="rgb(38 216 202)" version="1.1" id="Capa_1" xmlns="http://www.w3.org/2000/svg" xmlns:xlink="http://www.w3.org/1999/xlink" 
	 width="800px" height="800px" viewBox="0 0 191.606 191.606"
	 xml:space="preserve">
<g>
	<path d="M11.771,21.25c-1.936,0-3.504,1.57-3.504,3.504v38.45c0,1.802,1.364,3.304,3.153,3.487l88.587,8.935v34.958H85.391
		c-1.933,0-3.504,1.567-3.504,3.504v55.897c0,11.923,9.7,21.621,21.625,21.621c11.926,0,21.628-9.698,21.628-21.621v-55.897
		c0-1.937-1.574-3.504-3.504-3.504h-14.62V72.459c0-1.802-1.362-3.304-3.155-3.487l-88.586-8.935V24.754
		C15.274,22.82,13.704,21.25,11.771,21.25z M118.131,169.985c0,8.056-6.557,14.612-14.619,14.612
		c-8.06,0-14.616-6.557-14.616-14.612v-52.394h29.235V169.985z"/>
	<path d="M183.341,46.004v-42.5c0-1.934-1.571-3.504-3.505-3.504H27.186c-1.934,0-3.504,1.571-3.504,3.504v42.5
		c0,1.936,1.571,3.504,3.504,3.504h152.65C181.776,49.508,183.341,47.939,183.341,46.004z M176.332,42.5H30.689V7.009h145.643V42.5z
		"/>
</g>
</svg>