<?xml version="1.0" encoding="iso-8859-1"?>
<!-- Uploaded to: SVG Repo, www.svgrepo.com, Generator: SVG Repo Mixer Tools -->
<svg fill="#000000" height="800px" width="800px" version="1.1" id="Layer_1" xmlns="http://www.w3.org/2000/svg" xmlns:xlink="http://www.w3.org/1999/xlink" 
	 viewBox="0 0 503.934 503.934" xml:space="preserve">
<g>
	<g>
		<g>
			<path d="M61.376,274.525c3.278,3.278,8.592,3.278,11.87,0l50.36-50.36c0.196-0.196,0.381-0.402,0.557-0.616
				c0.079-0.096,0.148-0.198,0.222-0.296c0.09-0.12,0.183-0.238,0.267-0.363c0.08-0.119,0.148-0.242,0.221-0.364
				c0.067-0.113,0.138-0.223,0.201-0.339c0.067-0.125,0.123-0.253,0.183-0.381c0.057-0.121,0.117-0.24,0.169-0.364
				c0.051-0.124,0.093-0.25,0.138-0.376c0.048-0.133,0.098-0.263,0.14-0.399c0.038-0.126,0.066-0.253,0.098-0.38
				c0.035-0.139,0.074-0.275,0.102-0.417c0.029-0.145,0.046-0.292,0.067-0.438c0.018-0.125,0.042-0.248,0.054-0.374
				c0.054-0.55,0.054-1.105,0-1.655c-0.012-0.127-0.036-0.249-0.054-0.374c-0.021-0.146-0.038-0.293-0.067-0.438
				c-0.028-0.141-0.067-0.278-0.102-0.417c-0.032-0.127-0.06-0.255-0.098-0.38c-0.041-0.136-0.092-0.266-0.14-0.399
				c-0.045-0.126-0.086-0.252-0.138-0.376c-0.051-0.124-0.112-0.243-0.169-0.364c-0.06-0.127-0.117-0.256-0.183-0.381
				c-0.062-0.116-0.133-0.227-0.201-0.339c-0.073-0.122-0.142-0.245-0.221-0.364c-0.084-0.125-0.177-0.243-0.267-0.363
				c-0.074-0.099-0.143-0.2-0.222-0.296c-0.351-0.428-0.743-0.82-1.171-1.171c-0.096-0.079-0.198-0.148-0.297-0.222
				c-0.12-0.09-0.238-0.183-0.362-0.266c-0.119-0.08-0.243-0.149-0.366-0.222c-0.113-0.067-0.223-0.138-0.339-0.2
				c-0.125-0.067-0.253-0.123-0.38-0.183c-0.121-0.057-0.24-0.117-0.364-0.169c-0.125-0.052-0.252-0.093-0.378-0.138
				c-0.132-0.047-0.262-0.098-0.397-0.139c-0.127-0.038-0.255-0.066-0.383-0.099c-0.137-0.035-0.273-0.073-0.413-0.101
				c-0.148-0.029-0.297-0.047-0.446-0.068c-0.122-0.017-0.242-0.041-0.366-0.053c-0.275-0.027-0.552-0.042-0.828-0.042H87.575
				l36.032-36.032c3.278-3.278,3.278-8.592,0-11.87c-3.278-3.278-8.592-3.278-11.87,0l-50.36,50.36
				c-0.196,0.196-0.381,0.402-0.557,0.616c-0.079,0.096-0.148,0.198-0.222,0.296c-0.09,0.12-0.183,0.238-0.267,0.363
				c-0.08,0.119-0.148,0.242-0.221,0.364c-0.067,0.113-0.138,0.223-0.201,0.339c-0.067,0.125-0.123,0.253-0.183,0.381
				c-0.057,0.121-0.117,0.24-0.169,0.364c-0.051,0.124-0.093,0.25-0.138,0.376c-0.048,0.133-0.098,0.263-0.14,0.399
				c-0.038,0.126-0.066,0.253-0.098,0.38c-0.035,0.139-0.074,0.275-0.102,0.417c-0.029,0.145-0.046,0.292-0.067,0.438
				c-0.018,0.125-0.042,0.248-0.054,0.374c-0.054,0.55-0.054,1.105,0,1.655c0.012,0.127,0.036,0.249,0.054,0.374
				c0.021,0.146,0.038,0.293,0.067,0.438c0.028,0.141,0.067,0.278,0.102,0.417c0.032,0.127,0.06,0.255,0.098,0.38
				c0.041,0.136,0.092,0.266,0.14,0.399c0.045,0.126,0.086,0.252,0.138,0.376c0.051,0.124,0.112,0.243,0.169,0.364
				c0.06,0.127,0.117,0.256,0.183,0.381c0.062,0.116,0.133,0.227,0.201,0.339c0.073,0.122,0.142,0.245,0.221,0.364
				c0.084,0.125,0.177,0.243,0.267,0.363c0.074,0.099,0.143,0.2,0.222,0.296c0.351,0.428,0.743,0.82,1.171,1.171
				c0.096,0.079,0.198,0.148,0.297,0.222c0.12,0.09,0.238,0.183,0.362,0.266c0.119,0.08,0.243,0.149,0.366,0.222
				c0.113,0.067,0.223,0.138,0.339,0.2c0.124,0.066,0.252,0.123,0.379,0.182c0.122,0.057,0.241,0.118,0.366,0.17
				c0.124,0.051,0.25,0.093,0.376,0.138c0.133,0.048,0.263,0.098,0.399,0.14c0.127,0.038,0.255,0.066,0.383,0.099
				c0.137,0.035,0.273,0.073,0.413,0.101c0.148,0.029,0.297,0.047,0.446,0.068c0.122,0.017,0.242,0.041,0.366,0.053
				c0.275,0.027,0.552,0.042,0.828,0.042h30.097l-36.032,36.032C58.098,265.933,58.098,271.247,61.376,274.525z"/>
			<path d="M310.721,268.697c-4.636,0-8.393,3.758-8.393,8.393c0,17.037-3.577,27.345-11.02,37.735
				c-0.997,1.392-6.163,8.12-7.522,10.089c-2.593,3.757-4.409,7.308-5.484,11.042h-1.903c-0.512-8.481,0.235-15.332,2.075-24.201
				c-0.032,0.156,0.862-4.094,1.099-5.279c0.414-2.067,0.717-3.792,0.949-5.489c1.261-9.208,0.224-17.315-4.065-27.23
				c-1.841-4.255-6.782-6.211-11.036-4.371c-4.255,1.841-6.211,6.782-4.371,11.036c3.051,7.053,3.693,12.067,2.841,18.286
				c-0.18,1.31-0.426,2.715-0.778,4.473c-0.218,1.088-1.092,5.243-1.075,5.162c-2.056,9.907-2.95,17.967-2.453,27.612h-3.252
				c-3.225-4.918-4.417-9.502-4.539-15.491c-0.039-1.914,0.003-3.465,0.166-7.281c0.734-17.223-0.901-26.818-9.704-40.609
				c-2.494-3.907-7.684-5.053-11.591-2.559s-5.053,7.684-2.559,11.591c6.584,10.315,7.683,16.764,7.083,30.863
				c-0.178,4.174-0.226,5.95-0.178,8.338c0.199,9.763,2.584,17.884,8.563,26.213v56.192c0,27.763-22.598,50.361-50.361,50.361
				h-25.18c-27.763,0-50.361-22.598-50.361-50.361v-17.114c9.27,0,16.787-7.511,16.787-16.787v-33.574h33.574
				c9.27,0,16.787-7.511,16.787-16.787V117.508c0-9.276-7.517-16.787-16.787-16.787h-8.393V25.18c0-13.902-11.278-25.18-25.18-25.18
				H50.524c-13.902,0-25.18,11.278-25.18,25.18v75.541h-8.393c-9.27,0-16.787,7.511-16.787,16.787v201.443
				c0,9.276,7.517,16.787,16.787,16.787h33.574v33.574c0,9.276,7.517,16.787,16.787,16.787v17.114
				c0,55.542,45.18,100.721,100.721,100.721h25.18c55.542,0,100.721-45.18,100.721-100.721v-58.863c0-0.019-0.003-0.037-0.003-0.056
				c0-0.019,0.003-0.037,0.003-0.056c0-3.291,1.029-5.965,3.667-9.788c1.06-1.536,6.103-8.105,7.352-9.848
				c9.412-13.138,14.16-26.822,14.16-47.511C319.114,272.455,315.357,268.697,310.721,268.697z M42.131,25.18
				c0-4.631,3.763-8.393,8.393-8.393h83.934c4.631,0,8.393,3.763,8.393,8.393v75.541H42.131V25.18z M16.951,117.508h16.787h117.508
				h16.787v201.443h-41.967H58.918H16.951V117.508z M117.672,335.738v33.574h-8.393H75.705h-8.393v-33.574H117.672z
				 M277.147,403.213c0,46.271-37.664,83.934-83.934,83.934h-25.18c-46.271,0-83.934-37.664-83.934-83.934v-17.114h16.787v17.114
				c0,37.034,30.113,67.148,67.148,67.148h25.18c37.034,0,67.148-30.113,67.148-67.148v-50.47h16.787V403.213z"/>
			<path d="M403.049,0.222h-50.361c-55.542,0-100.721,45.18-100.721,100.721v67.03c0,0,0,0.001,0,0.001s0,0.001,0,0.001
				c0,3.291-1.029,5.965-3.667,9.788c-1.06,1.535-6.103,8.105-7.352,9.848c-9.412,13.138-14.161,26.822-14.161,47.511
				c0,4.636,3.758,8.393,8.393,8.393s8.393-3.758,8.393-8.393c0-17.037,3.577-27.345,11.02-37.735
				c0.997-1.392,6.163-8.12,7.522-10.089c2.568-3.72,4.371-7.238,5.45-10.933h1.943c0.5,8.434-0.249,15.265-2.081,24.095
				c0.032-0.153-0.862,4.095-1.099,5.279c-0.414,2.068-0.717,3.792-0.949,5.489c-1.261,9.206-0.223,17.312,4.065,27.226
				c1.841,4.255,6.781,6.211,11.036,4.371s6.211-6.782,4.371-11.036c-3.051-7.052-3.693-12.065-2.841-18.283
				c0.18-1.31,0.426-2.715,0.778-4.473c0.218-1.087,1.092-5.24,1.076-5.162c2.048-9.869,2.944-17.907,2.459-27.507h3.314
				c3.174,4.875,4.349,9.434,4.471,15.376c0.039,1.917-0.003,3.469-0.166,7.291c-0.734,17.223,0.901,26.818,9.705,40.606
				c2.495,3.907,7.684,5.052,11.591,2.557c3.907-2.495,5.052-7.684,2.557-11.591c-6.584-10.311-7.682-16.759-7.082-30.858
				c0.178-4.181,0.227-5.959,0.177-8.351c-0.201-9.757-2.586-17.874-8.563-26.198v-64.256c0-27.763,22.598-50.361,50.361-50.361
				h50.361c27.763,0,50.361,22.598,50.361,50.361v394.492c0,4.636,3.758,8.393,8.393,8.393h33.574c4.636,0,8.393-3.758,8.393-8.393
				V100.943C503.77,45.401,458.591,0.222,403.049,0.222z M486.983,487.041h-16.787V100.943c0-37.034-30.113-67.148-67.148-67.148
				h-50.361c-37.034,0-67.148,30.113-67.148,67.148v58.637h-16.787v-58.637c0-46.271,37.664-83.934,83.934-83.934h50.361
				c46.271,0,83.934,37.664,83.934,83.934V487.041z"/>
		</g>
	</g>
</g>
</svg>