<?xml version="1.0" encoding="iso-8859-1"?>
<!-- Uploaded to: SVG Repo, www.svgrepo.com, Generator: SVG Repo Mixer Tools -->
<svg fill="rgb(38 216 202)" height="800px" width="800px" version="1.1" id="Layer_1" xmlns="http://www.w3.org/2000/svg" xmlns:xlink="http://www.w3.org/1999/xlink" 
	 viewBox="0 0 503.175 503.175" xml:space="preserve">
<g>
	<g>
		<path d="M486.005,247.174h-9.503c-4.395-111.683-91.729-202.341-202.847-211.107V8.829c0-4.875-3.952-8.828-8.828-8.828h-70.621
			c-4.875,0-8.828,3.952-8.828,8.828v17.655h-71.703L105.302,5.55c-1.341-3.351-4.587-5.549-8.196-5.549H26.485
			c-3.61,0-6.856,2.198-8.196,5.549L0.634,49.688c-0.417,1.043-0.631,2.155-0.631,3.279v8.776C0.003,61.76,0,61.777,0,61.794v70.621
			c0,0.018,0.003,0.034,0.003,0.052v8.776c0,1.123,0.214,2.236,0.631,3.279l17.655,44.138c1.341,3.351,4.587,5.549,8.196,5.549
			h70.621c3.61,0,6.856-2.198,8.196-5.549l8.373-20.934h71.703v17.655c0,4.875,3.952,8.828,8.828,8.828h70.621
			c4.875,0,8.828-3.952,8.828-8.828v-24.802c42.605,7.79,75.13,43.187,79.049,86.595h-8.911c-9.483,0-17.17,7.686-17.17,17.17
			v35.796c0,9.731,7.925,17.655,17.655,17.655h8.825v185.379H476.69V317.794h9.792c9.227,0,16.693-7.466,16.693-16.693v-36.758
			C503.175,254.86,495.489,247.174,486.005,247.174z M17.658,70.622h88.273v52.966H17.658V70.622z M32.462,17.657H91.13
			l14.124,35.31H18.338L32.462,17.657z M91.13,176.553H32.462l-14.124-35.31h86.916L91.13,176.553z M120.74,150.07l2.22-5.549
			c0.417-1.043,0.631-2.155,0.631-3.279V52.967c0-1.123-0.214-2.236-0.631-3.279l-2.22-5.549h64.64V150.07H120.74z M256,176.553
			h-52.965v-17.568c0-0.029,0.004-0.058,0.004-0.087V35.312c0-0.029-0.004-0.058-0.004-0.087V17.657H256V176.553z M273.658,142.673
			V53.765c101.324,8.69,180.83,91.448,185.191,193.409h-88.423C366.377,194.055,326.109,150.747,273.658,142.673z M459.034,485.519
			h-88.276V317.794h88.276V485.519z M485.52,300.139h-8.83H353.103h-8.825v-35.31h8.828v0.004h123.586v-0.004h8.828V300.139z"/>
	</g>
</g>
</svg>